<svg width="64" height="64" viewBox="0 0 64 64" fill="none" xmlns="http://www.w3.org/2000/svg">
<rect width="64" height="64" fill="#101827"/>
<path d="M38.7629 13.8487L19.9044 20.3574C14.9993 22.0503 12.5467 22.8968 11.633 24.3377C10.8383 25.5909 10.6577 27.1378 11.1423 28.5404C11.6994 30.153 13.891 31.5418 18.2742 34.3192L35.13 45.0001C38.6096 47.205 40.3494 48.3075 41.8718 48.2449C43.2016 48.1902 44.4512 47.5943 45.3307 46.5953C46.3375 45.4516 46.5759 43.4058 47.0526 39.3142L49.0553 22.1246C49.5317 18.0349 49.7699 15.9901 49.0534 14.6458C48.4275 13.4717 47.3488 12.6044 46.0677 12.2451C44.6009 11.8338 42.6549 12.5055 38.7629 13.8487Z" fill="white" fill-opacity="0.54"/>
<path d="M44.8375 16.6702L23.7262 13.5763C18.971 12.8795 16.5934 12.531 15.1524 13.3304C13.8973 14.0265 13.0128 15.2404 12.7345 16.6483C12.4151 18.265 13.475 20.4215 15.595 24.7346L26.1507 46.2099C28.2493 50.4796 29.2986 52.6144 30.7646 53.3497C32.0416 53.9902 33.5353 54.0383 34.8508 53.4814C36.3611 52.842 37.5457 50.7792 39.9149 46.6535L50.4705 28.2721L50.4705 28.2721C52.384 24.94 53.3407 23.274 53.2489 21.8116C53.1686 20.5326 52.588 19.3367 51.6326 18.4826C50.5402 17.506 48.6393 17.2274 44.8375 16.6702Z" fill="white"/>
<path d="M28.6871 33.3558L23.0891 30.2768C22.6401 30.0299 22.6401 29.3847 23.0891 29.1377L28.6871 26.0588C29.21 25.7712 29.8116 26.2812 29.6135 26.8441L28.6819 29.4915C28.6327 29.6312 28.6327 29.7834 28.6819 29.923L29.6135 32.5704C29.8116 33.1334 29.21 33.6433 28.6871 33.3558Z" stroke="#101827" stroke-width="0.8125"/>
<path d="M36.5573 25.9904L42.8283 29.1259C43.3074 29.3654 43.3074 30.0491 42.8283 30.2887L36.5573 33.4241C36.0259 33.6898 35.446 33.1622 35.6605 32.6081L36.6925 29.9419C36.751 29.7909 36.751 29.6236 36.6925 29.4726L35.6605 26.8064C35.446 26.2524 36.0259 25.7247 36.5573 25.9904Z" stroke="#101827" stroke-width="0.8125"/>
<path d="M31.8035 34.176L34.241 25.2385" stroke="#101827" stroke-width="0.8125" stroke-linecap="round"/>
</svg>
