<svg width="64" height="64" viewBox="0 0 64 64" fill="none" xmlns="http://www.w3.org/2000/svg">
<g clip-path="url(#clip0_939_2444)">
<path fill-rule="evenodd" clip-rule="evenodd" d="M16.355 16.9925L39.5654 8.98186C44.3556 7.32862 46.7507 6.50199 48.5559 7.00823C50.1327 7.45039 51.4602 8.51783 52.2306 9.96294C53.1125 11.6174 52.8193 14.1341 52.2329 19.1675L49.7681 40.3239C49.1814 45.3598 48.888 47.8778 47.6488 49.2854C46.5664 50.5148 45.0284 51.2483 43.3918 51.3156C41.518 51.3926 39.3767 50.0358 35.0942 47.3221L35.0942 47.3221L14.3485 34.1763L14.3485 34.1763C8.95386 30.7579 6.25652 29.0487 5.57077 27.0639C4.97438 25.3377 5.19668 23.4338 6.17472 21.8914C7.2993 20.118 10.3179 19.0762 16.355 16.9925ZM31.2622 20.7593L26.2961 32.6016C26.0138 33.2747 26.7064 33.9432 27.3691 33.6373L31.6647 31.6547C31.8775 31.5566 32.1225 31.5566 32.3352 31.6547L36.6309 33.6373C37.2936 33.9432 37.9861 33.2747 37.7039 32.6016L32.7377 20.7593C32.4634 20.1051 31.5366 20.1051 31.2622 20.7593Z" fill="#101827" fill-opacity="0.54"/>
<path d="M47.0418 12.4545L21.0586 8.64661C15.2061 7.78891 12.2799 7.36006 10.5063 8.34386C8.96158 9.20068 7.87292 10.6946 7.53047 12.4275C7.13727 14.4173 8.44188 17.0715 11.0511 22.3799L24.0427 48.8111C26.6256 54.066 27.9171 56.6934 29.7213 57.5984C31.293 58.3867 33.1314 58.446 34.7505 57.7605C36.6093 56.9736 38.0673 54.4347 40.9832 49.357L53.9748 26.7337L53.9748 26.7337C56.3298 22.6327 57.5073 20.5822 57.3943 18.7823C57.2955 17.2082 56.5809 15.7362 55.405 14.6851C54.0605 13.4831 51.721 13.1402 47.0418 12.4545Z" fill="#101827"/>
<path d="M27.1644 32.9904L20.2745 29.201C19.7219 28.897 19.7219 28.103 20.2745 27.799L27.1644 24.0096C27.808 23.6556 28.5484 24.2833 28.3046 24.9761L27.158 28.2344C27.0975 28.4063 27.0975 28.5937 27.158 28.7656L28.3046 32.0239C28.5484 32.7167 27.808 33.3444 27.1644 32.9904Z" stroke="white"/>
<path d="M36.8508 23.9254L44.5689 27.7845C45.1586 28.0793 45.1586 28.9207 44.5689 29.2155L36.8508 33.0746C36.1968 33.4016 35.483 32.7522 35.747 32.0702L37.0172 28.7888C37.0892 28.603 37.0892 28.397 37.0172 28.2112L35.747 24.9297C35.483 24.2478 36.1968 23.5984 36.8508 23.9254Z" stroke="white"/>
<path d="M31 34L34 23" stroke="white" stroke-linecap="round"/>
</g>
<defs>
<clipPath id="clip0_939_2444">
<rect width="64" height="64" fill="white"/>
</clipPath>
</defs>
</svg>
