<svg width="900" height="383" viewBox="0 0 900 383" fill="none" xmlns="http://www.w3.org/2000/svg">
<rect width="900" height="383" fill="black"/>
<rect x="319.17" y="61.1704" width="261.659" height="261.659" rx="130.83" fill="black"/>
<rect x="319.17" y="61.1704" width="261.659" height="261.659" rx="130.83" stroke="black" stroke-width="0.340702"/>
<path d="M477.655 125.849C493.588 120.35 501.555 117.601 507.559 119.284C512.803 120.755 517.219 124.305 519.781 129.112C522.714 134.615 521.739 142.986 519.789 159.728L511.59 230.098C509.639 246.848 508.663 255.224 504.542 259.906C500.941 263.995 495.825 266.434 490.381 266.657C484.149 266.913 477.027 262.401 462.783 253.375L393.779 209.65C375.835 198.28 366.863 192.594 364.583 185.992C362.599 180.251 363.338 173.918 366.591 168.788C370.332 162.89 380.372 159.424 400.453 152.493L477.655 125.849Z" fill="white" fill-opacity="0.54"/>
<path d="M380.999 123.725C386.898 120.453 396.632 121.88 416.098 124.733L502.522 137.398C518.086 139.679 525.867 140.82 530.339 144.818C534.25 148.315 536.628 153.21 536.957 158.446C537.332 164.433 533.416 171.253 525.583 184.893L482.371 260.142C472.672 277.032 467.822 285.476 461.639 288.094C456.254 290.374 450.139 290.177 444.912 287.554C438.91 284.544 434.614 275.806 426.023 258.327L382.811 170.412C374.133 152.756 369.793 143.927 371.101 137.309C372.24 131.545 375.861 126.575 380.999 123.725Z" fill="white"/>
<path d="M436.406 205.705L413.489 193.101C411.651 192.09 411.651 189.449 413.489 188.438L436.406 175.833C438.547 174.656 441.01 176.744 440.199 179.048L436.385 189.886C436.184 190.458 436.184 191.081 436.385 191.653L440.199 202.49C441.01 204.795 438.547 206.883 436.406 205.705Z" stroke="#101827" stroke-width="3.32617"/>
<path d="M468.625 175.553L494.297 188.389C496.258 189.37 496.258 192.169 494.297 193.149L468.625 205.985C466.449 207.073 464.075 204.913 464.953 202.645L469.178 191.73C469.418 191.112 469.418 190.427 469.178 189.809L464.953 178.894C464.075 176.626 466.45 174.466 468.625 175.553Z" stroke="#101827" stroke-width="3.32617"/>
<path d="M449.164 209.063L459.143 172.475" stroke="#101827" stroke-width="3.32617" stroke-linecap="round"/>
</svg>
